<svg height="512" viewBox="0 0 512 512" width="512" xmlns="http://www.w3.org/2000/svg"><g id="Outline"><path d="m264 384a40 40 0 1 0 40 40 40.045 40.045 0 0 0 -40-40zm0 64a24 24 0 1 1 24-24 24.028 24.028 0 0 1 -24 24z"/><path d="m336 424a72.081 72.081 0 0 0 -72-72q-2.452 0-4.936.173l-34.3-98.232 34.576-138.3a112.061 112.061 0 0 0 -21.093-96.641 8 8 0 0 0 -13.8 2.359l-40.447 115.841-40.447-115.838a8 8 0 0 0 -13.801-2.362 111.654 111.654 0 0 0 -22.964 51.713l15.792 2.568a95.652 95.652 0 0 1 11.112-31.621l41.835 119.81-22.678 64.946-28.667-114.653a95.573 95.573 0 0 1 -2.842-23.133h-16a111.633 111.633 0 0 0 3.319 27.011l34.58 138.3-34.3 98.232q-2.478-.173-4.939-.173a72 72 0 0 0 -71.922 75.39c1.69 36.739 31.793 66.841 68.532 68.532q1.722.079 3.433.079a72 72 0 0 0 49.95-123.81l27.907-69.42 2.1-.525 2.1.525 27.908 69.421a72 72 0 0 0 49.944 123.808q1.712 0 3.436-.079c36.738-1.692 66.841-31.8 68.532-68.507.054-1.086.08-2.202.08-3.414zm-161.94-135.761a8 8 0 0 0 -5.483 4.777l-31.528 78.427a8 8 0 0 0 2.36 9.179 55.99 55.99 0 1 1 -35.409-12.622 56.469 56.469 0 0 1 9.092.747 8.006 8.006 0 0 0 8.844-5.258l112.364-321.813a96.061 96.061 0 0 1 9.513 70.079l-42.413 169.645zm145.878 138.412a56.345 56.345 0 0 1 -53.286 53.287 55.994 55.994 0 0 1 -38.061-99.313 8 8 0 0 0 2.362-9.18l-29.567-73.545 8.554-2.138a8 8 0 0 0 5.821-5.821l1.929-7.716 28.377 81.263a8 8 0 0 0 8.838 5.259 56.815 56.815 0 0 1 9.095-.747 56.063 56.063 0 0 1 56 56c0 .946-.02 1.806-.062 2.651z"/><path d="m104 384a40 40 0 1 0 40 40 40.045 40.045 0 0 0 -40-40zm0 64a24 24 0 1 1 24-24 24.027 24.027 0 0 1 -24 24z"/><path d="m176 248h16v16h-16z"/><path d="m448 16h-67.156a102.941 102.941 0 0 0 -57.282 17.344 8 8 0 0 0 -3.562 6.656v320h104v-16h-88v-16h88v-16h-88v-16h88v-16h-88v-16h88v-16h-88v-16h88v-16h-88v-16h88v-16h-88v-16h88v-16h-88v-16h88v-16h-88v-16h88v-16h-88v-16h88v-16h-88v-11.6a86.959 86.959 0 0 1 44.844-12.4h67.156a16.019 16.019 0 0 1 16 16v416a16.019 16.019 0 0 1 -16 16h-67.156a87.5 87.5 0 0 1 -41.895-10.715l-7.682 14.035a103.553 103.553 0 0 0 49.577 12.68h67.156a32.036 32.036 0 0 0 32-32v-416a32.036 32.036 0 0 0 -32-32z"/><path d="m344 376h80v16h-80z"/><path d="m352 408h72v16h-72z"/><path d="m352 440h72v16h-72z"/></g></svg>